# xmcd CD database file
#
# Track frame offsets:
#	150
#	13570
#	22193
#	36843
#	51504
#	69964
#	88234
#	117365
#	142125
#	162402
#	182255
#	198580
#	220945
#	245430
#
# Disc length: 3530 seconds
#
# Revision: 0
# Processed by: cddbd v1.5.2PL0 Copyright (c) Steve Scherf et al.
# Submitted via: CDex 1.51
#
DISCID=cd0dc80e
DTITLE=Blood Sweat and Tears - New Blood - No Sweat - More Than Ever - CD2
DYEAR=2012
DGENRE=Jazz
TTITLE0=Back Up Against The Wall
TTITLE1=Hip Pickles
TTITLE2=My Old Lady
TTITLE3=Empty Pages
TTITLE4=Mary Miles
TTITLE5=Inner Crisis
TTITLE6=They
TTITLE7=I Love You More Than Ever
TTITLE8=Katy Bell
TTITLE9=Sweet Sadie The Savior
TTITLE10=Hollywood
TTITLE11=You're The One
TTITLE12=Heavy Blue
TTITLE13=Saved By The Grace Of Your Love
EXTD=YEAR: 2012
EXTT0=
EXTT1=
EXTT2=
EXTT3=
EXTT4=
EXTT5=
EXTT6=
EXTT7=
EXTT8=
EXTT9=
EXTT10=
EXTT11=
EXTT12=
EXTT13=
PLAYORDER=
